# xmcd CD database file
#
# Track frame offsets:
#	150
#	19508
#	35225
#	51494
#	65414
#	80590
#	103826
#	118190
#	131719
#	148183
#
# Disc length: 2226 seconds
#
# Revision: 2
# Processed by: cddbd v1.5.2PL0 Copyright (c) Steve Scherf et al.
# Submitted via: CDex 1.51
#
DISCID=9908b00a
DTITLE=Equilibrio - Sige Lang
DYEAR=2011
DGENRE=Blues
TTITLE0=Sige Lang Ako
TTITLE1=May Isang Umaga
TTITLE2=Arkoiris
TTITLE3=Ano Ba 'To?
TTITLE4=Kumusta Na?
TTITLE5=Kanta Ng Paghihintay
TTITLE6=Astig Talaga
TTITLE7=Ang Pagsintang Ito
TTITLE8=Ngiti Naman D'yan
TTITLE9=Harinawa
EXTD=YEAR: 2011
EXTT0=
EXTT1=
EXTT2=
EXTT3=
EXTT4=
EXTT5=
EXTT6=
EXTT7=
EXTT8=
EXTT9=
PLAYORDER=
